# xmcd
#
# Track frame offsets:
#	150
#	14522
#	27093
#
# Disc length: 551 seconds
#
# Revision: 0
# Processed by: cddbd v1.5.2PL0 Copyright (c) Steve Scherf et al.
# Submitted via: audiograbber 1.83.01
#
DISCID=19022503
DTITLE=Kathrin and Peter - Hurra die Musik ist da
DYEAR=2004
DGENRE=Volksmusik
TTITLE0=Hurra die Musik ist da
TTITLE1=Tanz mit mir
TTITLE2=Hurra die Musik ist da (instrumental)
EXTD=<http://www.hit-radio24.de> \n
EXTT0=
EXTT1=
EXTT2=
PLAYORDER=
